<svg xmlns="http://www.w3.org/2000/svg" viewBox="0 0 94.21 86.05"><path d="M12.71,45.72,1.88,7.33H8.53L13.59,26.7l3.36,13h.33l3.35-13L25.75,7.33h6.38L21.29,45.72Z" transform="translate(-1.88 -7.33)"/><path d="M58.91,45.72,56,35.44H43.79L40.87,45.72H34.6L45.82,7.33h8.42L65.46,45.72Zm-8.8-32.17h-.44L44.94,30.38h9.9Z" transform="translate(-1.88 -7.33)"/><path d="M76.34,16.19h-.49V45.72H70.46V7.33h7.92L89.66,36.87h.49V7.33h5.39V45.72H87.62Z" transform="translate(-1.88 -7.33)"/><path d="M25,74.35l.16-11.55H24.7L17,82.55,9.3,62.8H8.86L9,74.35V92.72H3.58V54.33h7.54L17,69.57h.39l5.94-15.24h7.09V92.72H25Z" transform="translate(-1.88 -7.33)"/><path d="M50,93.38A13.8,13.8,0,0,1,43.7,92a11.63,11.63,0,0,1-4.4-3.88,17.7,17.7,0,0,1-2.55-6.22,38.63,38.63,0,0,1-.83-8.41,38.83,38.83,0,0,1,.83-8.39A17.73,17.73,0,0,1,39.3,58.9,11.63,11.63,0,0,1,43.7,55,13.8,13.8,0,0,1,50,53.67,13.8,13.8,0,0,1,56.3,55a11.63,11.63,0,0,1,4.4,3.88,17.73,17.73,0,0,1,2.55,6.24,38.21,38.21,0,0,1,.83,8.39,38,38,0,0,1-.83,8.41,17.7,17.7,0,0,1-2.55,6.22A11.63,11.63,0,0,1,56.3,92,13.8,13.8,0,0,1,50,93.38Zm0-5.06c2.75,0,4.69-1,5.83-3.11a17.73,17.73,0,0,0,1.71-8.48V70.27a17.58,17.58,0,0,0-1.71-8.42Q54.12,58.73,50,58.73t-5.83,3.12a17.58,17.58,0,0,0-1.71,8.42v6.52a17.58,17.58,0,0,0,1.71,8.42C45.31,87.29,47.25,88.32,50,88.32Z" transform="translate(-1.88 -7.33)"/><path d="M72.44,92.72V54.33H78.6V87.55H96.09v5.17Z" transform="translate(-1.88 -7.33)"/></svg>